<?xml version="1.0" encoding="utf-8"?>
<!-- Generator: Adobe Illustrator 28.0.0, SVG Export Plug-In . SVG Version: 6.00 Build 0)  -->
<svg version="1.1" id="Layer_1" xmlns="http://www.w3.org/2000/svg" xmlns:xlink="http://www.w3.org/1999/xlink" x="0px" y="0px"
	 viewBox="0 0 200 200" style="enable-background:new 0 0 200 200;" xml:space="preserve">
<g>
	<path d="M0,200C0,133.03,0,66.78,0,0.18c33.28,0,66.24,0,99.58,0c0,7.17,0,14.21,0,21.89c-25.54,0-51.16,0-77.12,0
		c0,52.17,0,103.71,0,155.55c51.61,0,103.01,0,155.06,0c0-25.57,0-51.19,0-77.18c7.67,0,14.72,0,22.22,0c0,33.02,0,66.13,0,99.56
		C133.15,200,66.75,200,0,200z"/>
	<path d="M126.97,90.2c-6.15-6.13-11.04-11-15.92-15.87c16.85-16.8,33.67-33.58,50.49-50.35c-0.27-0.51-0.54-1.02-0.81-1.53
		c-12.59,0-25.18,0-38.12,0c0-7.73,0-14.77,0-22.21c25.7,0,51.31,0,77.25,0c0,25.72,0,51.19,0,77.1c-7.14,0-14.18,0-21.85,0
		c0-12.49,0-25.16,0-38.31C160.71,56.36,143.96,73.16,126.97,90.2z"/>
</g>
</svg>
